<svg xmlns="http://www.w3.org/2000/svg" version="1.1" xmlns:xlink="http://www.w3.org/1999/xlink" xmlns:svgjs="http://svgjs.dev/svgjs" width="2000" height="1999" viewBox="0 0 2000 1999"><g transform="matrix(1,0,0,1,-0.431486880466764,-0.4312711370263287)"><svg viewBox="0 0 343 343" data-background-color="#ffffff" preserveAspectRatio="xMidYMid meet" height="1999" width="2000" xmlns="http://www.w3.org/2000/svg" xmlns:xlink="http://www.w3.org/1999/xlink"><g id="tight-bounds" transform="matrix(1,0,0,1,0.0740000000000407,0.07400000000001228)"><svg viewBox="0 0 342.85155851775386 342.85155851775386" height="342.85155851775386" width="342.85155851775386"><g><svg></svg></g><g><svg viewBox="0 0 342.85155851775386 342.85155851775386" height="342.85155851775386" width="342.85155851775386"><g><path d="M0 171.426c0-94.676 76.75-171.426 171.426-171.426 94.676 0 171.426 76.75 171.426 171.426 0 94.676-76.75 171.426-171.426 171.426-94.676 0-171.426-76.75-171.426-171.426zM171.426 332.465c88.939 0 161.039-72.1 161.039-161.039 0-88.939-72.1-161.039-161.039-161.039-88.939 0-161.039 72.1-161.039 161.039 0 88.939 72.1 161.039 161.039 161.039z" data-fill-palette-color="tertiary" fill="#755bb4" stroke="transparent"></path><ellipse rx="164.56874808852186" ry="164.56874808852186" cx="171.42577925887693" cy="171.42577925887693" fill="#755bb4" stroke="transparent" stroke-width="0" fill-opacity="1" data-fill-palette-color="tertiary"></ellipse></g><g transform="matrix(1,0,0,1,64.84655864529837,113.83614276018534)"><svg viewBox="0 0 213.1584412271571 115.17927299738317" height="115.17927299738317" width="213.1584412271571"><g><svg viewBox="0 0 213.1584412271571 115.17927299738317" height="115.17927299738317" width="213.1584412271571"><g><svg viewBox="0 0 213.1584412271571 115.17927299738317" height="115.17927299738317" width="213.1584412271571"><g><svg viewBox="0 0 213.1584412271571 115.17927299738317" height="115.17927299738317" width="213.1584412271571"><g><svg viewBox="0 0 213.1584412271571 115.17927299738317" height="115.17927299738317" width="213.1584412271571"><g><svg viewBox="0 0 213.1584412271571 115.17927299738317" height="115.17927299738317" width="213.1584412271571"><g transform="matrix(1,0,0,1,0,0)"><svg width="213.1584412271571" viewBox="5.099999904632568 -37.5 69.4000015258789 37.5" height="115.17927299738317" data-palette-color="#ffffff"><path d="M10.25 0L5.1 0 5.1-37.5 5.15-37.5 24.45-10.15 22.15-10.65 41.35-37.5 41.45-37.5 41.45 0 36.15 0 36.15-25.45 36.5-22.7 23.1-3.75 23-3.75 9.35-22.7 10.25-25.2 10.25 0ZM51.65-36.3L61.65-36.3Q65.7-36.3 68.57-34.93 71.45-33.55 72.97-31 74.5-28.45 74.5-24.8L74.5-24.8Q74.5-22.65 73.85-20.55 73.2-18.45 71.77-16.73 70.35-15 68-13.98 65.65-12.95 62.3-12.95L62.3-12.95 57-12.95 57 0 51.65 0 51.65-36.3ZM57-18.1L62.3-18.1Q64.3-18.1 65.65-18.78 67-19.45 67.77-20.5 68.55-21.55 68.87-22.68 69.2-23.8 69.2-24.7L69.2-24.7Q69.2-25.7 68.87-26.83 68.55-27.95 67.8-28.93 67.05-29.9 65.75-30.53 64.45-31.15 62.5-31.15L62.5-31.15 57-31.15 57-18.1Z" opacity="1" transform="matrix(1,0,0,1,0,0)" fill="#ffffff" class="undefined-text-0" data-fill-palette-color="quaternary" id="text-0"></path></svg></g></svg></g></svg></g></svg></g><g></g></svg></g></svg></g></svg></g></svg></g><defs></defs></svg><rect width="342.85155851775386" height="342.85155851775386" fill="none" stroke="none" visibility="hidden"></rect></g></svg></g></svg>